<svg id="visual" viewBox="0 0 900 600" width="900" height="600" xmlns="http://www.w3.org/2000/svg" xmlns:xlink="http://www.w3.org/1999/xlink" version="1.1"><rect x="0" y="0" width="900" height="600" fill="#002233"></rect><path d="M309 0L309 14.3C309 28.7 309 57.3 299.3 85.8C289.7 114.3 270.3 142.7 238.7 171.2C207 199.7 163 228.3 168.8 257C174.7 285.7 230.3 314.3 239.7 343C249 371.7 212 400.3 184.2 428.8C156.3 457.3 137.7 485.7 162.5 514.2C187.3 542.7 255.7 571.3 289.8 585.7L324 600L0 600L0 585.7C0 571.3 0 542.7 0 514.2C0 485.7 0 457.3 0 428.8C0 400.3 0 371.7 0 343C0 314.3 0 285.7 0 257C0 228.3 0 199.7 0 171.2C0 142.7 0 114.3 0 85.8C0 57.3 0 28.7 0 14.3L0 0Z" fill="#0066FF" stroke-linecap="round" stroke-linejoin="miter"></path></svg>